<svg width="24" height="24" viewBox="0 0 24 24" fill="none" xmlns="http://www.w3.org/2000/svg">
<path d="M11.64 20C7.174 20 4.942 20 3.742 18.555C2.54256 17.1097 2.95361 14.917 3.77585 10.5311L3.777 10.525L3.77828 10.5182C4.36243 7.40271 4.65481 5.84332 5.765 4.922C6.876 4 8.464 4 11.639 4H12.361C15.536 4 17.125 4 18.235 4.922C19.346 5.844 19.639 7.405 20.224 10.525L20.2252 10.5312C21.0474 14.917 21.4584 17.1097 20.259 18.555C19.059 20 16.826 20 12.36 20H11.64Z" stroke="black" stroke-width="1.5"/>
<path d="M9.17 8C9.3766 8.58553 9.75974 9.09257 10.2666 9.45121C10.7735 9.80986 11.3791 10.0025 12 10.0025C12.6209 10.0025 13.2265 9.80986 13.7334 9.45121C14.2403 9.09257 14.6234 8.58553 14.83 8" stroke="black" stroke-width="1.5" stroke-linecap="round"/>
</svg>
