<svg width="24" height="24" viewBox="0 0 24 24" fill="none" xmlns="http://www.w3.org/2000/svg">
<path fill-rule="evenodd" clip-rule="evenodd" d="M5.574 4.691C4.741 5.383 4.521 6.553 4.082 8.894L3.332 12.894C2.715 16.186 2.407 17.832 3.306 18.916C4.206 20 5.88 20 9.23 20H14.77C18.12 20 19.794 20 20.694 18.916C21.594 17.832 21.284 16.186 20.668 12.894L19.918 8.894C19.478 6.554 19.259 5.383 18.426 4.691C17.593 4 16.402 4 14.02 4H9.98C7.598 4 6.407 4 5.574 4.691ZM9.878 7.751C10.0331 8.19004 10.3205 8.57018 10.7006 8.83907C11.0807 9.10795 11.5349 9.25234 12.0005 9.25234C12.4661 9.25234 12.9203 9.10795 13.3004 8.83907C13.6805 8.57018 13.9679 8.19004 14.123 7.751C14.1929 7.5685 14.3314 7.4205 14.5088 7.33853C14.6862 7.25656 14.8886 7.24708 15.0729 7.31213C15.2572 7.37717 15.4089 7.51159 15.4955 7.68676C15.5822 7.86193 15.5971 8.06402 15.537 8.25C15.2784 8.98134 14.7995 9.61454 14.1662 10.0624C13.5328 10.5102 12.7762 10.7507 12.0005 10.7507C11.2248 10.7507 10.4682 10.5102 9.83483 10.0624C9.20148 9.61454 8.72255 8.98134 8.464 8.25C8.42929 8.15672 8.41349 8.05747 8.41752 7.95803C8.42155 7.85859 8.44533 7.76094 8.48749 7.67078C8.52964 7.58062 8.58931 7.49975 8.66303 7.43289C8.73675 7.36602 8.82304 7.3145 8.91687 7.28132C9.0107 7.24814 9.1102 7.23397 9.20956 7.23963C9.30893 7.24529 9.40617 7.27067 9.49563 7.31429C9.58508 7.35792 9.66496 7.41891 9.73061 7.49371C9.79626 7.56851 9.84636 7.65664 9.878 7.751Z" fill="black"/>
</svg>
