<svg width="24" height="24" viewBox="0 0 24 24" fill="none" xmlns="http://www.w3.org/2000/svg">
<path fill-rule="evenodd" clip-rule="evenodd" d="M2.335 7.875C1.795 9.002 1.985 10.321 2.365 12.958L2.643 14.895C3.13 18.283 3.374 19.976 4.549 20.988C5.724 22 7.447 22 10.894 22H13.106C16.553 22 18.276 22 19.451 20.988C20.626 19.976 20.87 18.283 21.357 14.895L21.636 12.958C22.016 10.321 22.206 9.002 21.665 7.875C21.124 6.748 19.974 6.062 17.673 4.692L16.288 3.867C14.2 2.622 13.154 2 12 2C10.846 2 9.801 2.622 7.712 3.867L6.327 4.692C4.027 6.062 2.876 6.748 2.335 7.875ZM8.25 18C8.25 17.8011 8.32902 17.6103 8.46967 17.4697C8.61032 17.329 8.80109 17.25 9 17.25H15C15.1989 17.25 15.3897 17.329 15.5303 17.4697C15.671 17.6103 15.75 17.8011 15.75 18C15.75 18.1989 15.671 18.3897 15.5303 18.5303C15.3897 18.671 15.1989 18.75 15 18.75H9C8.80109 18.75 8.61032 18.671 8.46967 18.5303C8.32902 18.3897 8.25 18.1989 8.25 18Z" fill="black"/>
</svg>
